# MagicaVoxel @ Ephtracy

# group
o 

# material
mtllib O_S_Rubbish-1.mtl
usemtl palette

# normals
vn -1 0 0
vn 1 0 0
vn 0 0 1
vn 0 0 -1
vn 0 -1 0
vn 0 1 0

# texcoords
vt 0.779297 0.5
vt 0.791016 0.5
vt 0.830078 0.5

# verts
v -0.9 0.5 0.5
v -0.9 0.5 -0.5
v -0.9 0.6 0.5
v -0.9 0.6 -0.5
v -0.8 0.6 0.5
v -0.8 0.6 -0.5
v -0.8 0.7 0.5
v -0.8 0.7 -0.5
v -0.7 0.7 0.5
v -0.7 0.7 -0.5
v -0.7 0.8 0.5
v -0.7 0.8 -0.5
v -0.6 0.8 0.5
v -0.6 0.8 -0.5
v -0.6 0.9 0.5
v -0.6 0.9 -0.5
v -0.5 0 0.5
v -0.5 0 -0.5
v -0.5 0.8 0.5
v -0.5 0.8 -0.5
v 0.4 0.1 0.4
v 0.4 0.1 -0.4
v 0.4 0.4 0.4
v 0.4 0.7 0.4
v 0.4 0.9 0.4
v 0.4 0.9 -0.4
v 0.6 0.7 0.5
v 0.6 0.7 -0.5
v 0.6 0.8 0.5
v 0.6 0.8 -0.5
v 0.7 0.6 0.5
v 0.7 0.6 -0.5
v 0.7 0.7 0.5
v 0.7 0.7 -0.5
v 0.8 0.5 0.5
v 0.8 0.5 -0.5
v 0.8 0.6 0.5
v 0.8 0.6 -0.5
v -0.8 0.5 0.5
v -0.8 0.5 -0.5
v -0.8 0.6 0.5
v -0.8 0.6 -0.5
v -0.7 0.6 0.5
v -0.7 0.6 -0.5
v -0.7 0.7 0.5
v -0.7 0.7 -0.5
v -0.6 0.7 0.5
v -0.6 0.7 -0.5
v -0.6 0.8 0.5
v -0.6 0.8 -0.5
v -0.4 0.1 0.4
v -0.4 0.1 -0.4
v -0.4 0.9 0.4
v -0.4 0.9 -0.4
v 0.5 0 0.5
v 0.5 0 -0.5
v 0.5 0.8 0.5
v 0.5 0.8 -0.5
v 0.6 0.8 0.5
v 0.6 0.8 -0.5
v 0.6 0.9 0.5
v 0.6 0.9 -0.5
v 0.7 0.7 0.5
v 0.7 0.7 -0.5
v 0.7 0.8 0.5
v 0.7 0.8 -0.5
v 0.8 0.6 0.5
v 0.8 0.6 -0.5
v 0.8 0.7 0.5
v 0.8 0.7 -0.5
v 0.9 0.5 0.5
v 0.9 0.5 -0.5
v 0.9 0.6 0.5
v 0.9 0.6 -0.5
v -0.9 0.5 0.5
v -0.9 0.6 0.5
v -0.8 0.5 0.5
v -0.8 0.6 0.5
v -0.8 0.7 0.5
v -0.7 0.6 0.5
v -0.7 0.7 0.5
v -0.7 0.8 0.5
v -0.6 0.7 0.5
v -0.6 0.8 0.5
v -0.6 0.9 0.5
v -0.5 0 0.5
v -0.5 0.8 0.5
v -0.1 0 0.5
v -0.1 0.9 0.5
v 0 0.2 0.5
v 0 0.3 0.5
v 0 0.4 0.5
v 0 0.7 0.5
v 0.1 0 0.5
v 0.1 0.2 0.5
v 0.1 0.3 0.5
v 0.1 0.4 0.5
v 0.1 0.6 0.5
v 0.1 0.7 0.5
v 0.1 0.9 0.5
v 0.2 0.2 0.5
v 0.2 0.3 0.5
v 0.2 0.5 0.5
v 0.2 0.6 0.5
v 0.3 0.5 0.5
v 0.3 0.7 0.5
v 0.4 0.4 0.5
v 0.4 0.7 0.5
v 0.5 0 0.5
v 0.5 0.8 0.5
v 0.6 0.7 0.5
v 0.6 0.8 0.5
v 0.6 0.9 0.5
v 0.7 0.6 0.5
v 0.7 0.7 0.5
v 0.7 0.8 0.5
v 0.8 0.5 0.5
v 0.8 0.6 0.5
v 0.8 0.7 0.5
v 0.9 0.5 0.5
v 0.9 0.6 0.5
v -0.4 0.1 -0.4
v -0.4 0.9 -0.4
v -0.1 0.1 -0.4
v -0.1 0.9 -0.4
v 0.1 0.1 -0.4
v 0.1 0.9 -0.4
v 0.4 0.1 -0.4
v 0.4 0.9 -0.4
v -0.4 0.1 0.4
v -0.4 0.9 0.4
v -0.1 0.1 0.4
v -0.1 0.9 0.4
v 0 0.2 0.4
v 0 0.3 0.4
v 0 0.4 0.4
v 0 0.7 0.4
v 0.1 0.1 0.4
v 0.1 0.2 0.4
v 0.1 0.3 0.4
v 0.1 0.4 0.4
v 0.1 0.6 0.4
v 0.1 0.7 0.4
v 0.1 0.9 0.4
v 0.2 0.2 0.4
v 0.2 0.3 0.4
v 0.2 0.5 0.4
v 0.2 0.6 0.4
v 0.3 0.5 0.4
v 0.3 0.7 0.4
v 0.4 0.1 0.4
v 0.4 0.4 0.4
v 0.4 0.7 0.4
v 0.4 0.9 0.4
v -0.9 0.5 -0.5
v -0.9 0.6 -0.5
v -0.8 0.5 -0.5
v -0.8 0.6 -0.5
v -0.8 0.7 -0.5
v -0.7 0.6 -0.5
v -0.7 0.7 -0.5
v -0.7 0.8 -0.5
v -0.6 0.7 -0.5
v -0.6 0.8 -0.5
v -0.6 0.9 -0.5
v -0.5 0 -0.5
v -0.5 0.8 -0.5
v -0.1 0 -0.5
v -0.1 0.9 -0.5
v 0.1 0 -0.5
v 0.1 0.9 -0.5
v 0.5 0 -0.5
v 0.5 0.8 -0.5
v 0.6 0.7 -0.5
v 0.6 0.8 -0.5
v 0.6 0.9 -0.5
v 0.7 0.6 -0.5
v 0.7 0.7 -0.5
v 0.7 0.8 -0.5
v 0.8 0.5 -0.5
v 0.8 0.6 -0.5
v 0.8 0.7 -0.5
v 0.9 0.5 -0.5
v 0.9 0.6 -0.5
v -0.5 0 0.5
v -0.1 0 0.5
v 0.1 0 0.5
v 0.5 0 0.5
v -0.5 0 -0.5
v -0.1 0 -0.5
v 0.1 0 -0.5
v 0.5 0 -0.5
v -0.9 0.5 0.5
v -0.8 0.5 0.5
v 0.8 0.5 0.5
v 0.9 0.5 0.5
v -0.9 0.5 -0.5
v -0.8 0.5 -0.5
v 0.8 0.5 -0.5
v 0.9 0.5 -0.5
v -0.8 0.6 0.5
v -0.7 0.6 0.5
v 0.7 0.6 0.5
v 0.8 0.6 0.5
v -0.8 0.6 -0.5
v -0.7 0.6 -0.5
v 0.7 0.6 -0.5
v 0.8 0.6 -0.5
v -0.7 0.7 0.5
v -0.6 0.7 0.5
v 0.6 0.7 0.5
v 0.7 0.7 0.5
v -0.7 0.7 -0.5
v -0.6 0.7 -0.5
v 0.6 0.7 -0.5
v 0.7 0.7 -0.5
v -0.6 0.8 0.5
v -0.5 0.8 0.5
v 0.5 0.8 0.5
v 0.6 0.8 0.5
v -0.6 0.8 -0.5
v -0.5 0.8 -0.5
v 0.5 0.8 -0.5
v 0.6 0.8 -0.5
v -0.4 0.1 0.4
v -0.1 0.1 0.4
v 0.1 0.1 0.4
v 0.4 0.1 0.4
v -0.4 0.1 -0.4
v -0.1 0.1 -0.4
v 0.1 0.1 -0.4
v 0.4 0.1 -0.4
v -0.9 0.6 0.5
v -0.8 0.6 0.5
v 0.8 0.6 0.5
v 0.9 0.6 0.5
v -0.9 0.6 -0.5
v -0.8 0.6 -0.5
v 0.8 0.6 -0.5
v 0.9 0.6 -0.5
v -0.8 0.7 0.5
v -0.7 0.7 0.5
v 0.7 0.7 0.5
v 0.8 0.7 0.5
v -0.8 0.7 -0.5
v -0.7 0.7 -0.5
v 0.7 0.7 -0.5
v 0.8 0.7 -0.5
v -0.7 0.8 0.5
v -0.6 0.8 0.5
v 0.6 0.8 0.5
v 0.7 0.8 0.5
v -0.7 0.8 -0.5
v -0.6 0.8 -0.5
v 0.6 0.8 -0.5
v 0.7 0.8 -0.5
v -0.6 0.9 0.5
v -0.1 0.9 0.5
v 0.1 0.9 0.5
v 0.6 0.9 0.5
v -0.4 0.9 0.4
v -0.1 0.9 0.4
v 0.1 0.9 0.4
v 0.4 0.9 0.4
v -0.4 0.9 -0.4
v -0.1 0.9 -0.4
v 0.1 0.9 -0.4
v 0.4 0.9 -0.4
v -0.6 0.9 -0.5
v -0.1 0.9 -0.5
v 0.1 0.9 -0.5
v 0.6 0.9 -0.5

# faces
f 3/3/1 2/3/1 1/3/1
f 4/3/1 2/3/1 3/3/1
f 7/1/1 6/1/1 5/1/1
f 8/1/1 6/1/1 7/1/1
f 11/1/1 10/1/1 9/1/1
f 12/1/1 10/1/1 11/1/1
f 15/1/1 14/1/1 13/1/1
f 16/1/1 14/1/1 15/1/1
f 19/1/1 18/1/1 17/1/1
f 20/1/1 18/1/1 19/1/1
f 23/1/1 22/1/1 21/1/1
f 24/1/1 22/1/1 23/1/1
f 25/1/1 22/1/1 24/1/1
f 26/1/1 22/1/1 25/1/1
f 29/1/1 28/1/1 27/1/1
f 30/1/1 28/1/1 29/1/1
f 33/1/1 32/1/1 31/1/1
f 34/1/1 32/1/1 33/1/1
f 37/3/1 36/3/1 35/3/1
f 38/3/1 36/3/1 37/3/1
f 39/3/2 40/3/2 41/3/2
f 41/3/2 40/3/2 42/3/2
f 43/1/2 44/1/2 45/1/2
f 45/1/2 44/1/2 46/1/2
f 47/1/2 48/1/2 49/1/2
f 49/1/2 48/1/2 50/1/2
f 51/1/2 52/1/2 53/1/2
f 53/1/2 52/1/2 54/1/2
f 55/1/2 56/1/2 57/1/2
f 57/1/2 56/1/2 58/1/2
f 59/1/2 60/1/2 61/1/2
f 61/1/2 60/1/2 62/1/2
f 63/1/2 64/1/2 65/1/2
f 65/1/2 64/1/2 66/1/2
f 67/1/2 68/1/2 69/1/2
f 69/1/2 68/1/2 70/1/2
f 71/3/2 72/3/2 73/3/2
f 73/3/2 72/3/2 74/3/2
f 77/3/3 76/3/3 75/3/3
f 78/3/3 76/3/3 77/3/3
f 80/1/3 79/1/3 78/1/3
f 81/1/3 79/1/3 80/1/3
f 83/1/3 82/1/3 81/1/3
f 84/1/3 82/1/3 83/1/3
f 87/1/3 85/1/3 84/1/3
f 88/1/3 87/1/3 86/1/3
f 89/1/3 85/1/3 87/1/3
f 89/1/3 87/1/3 88/1/3
f 90/3/3 89/3/3 88/3/3
f 91/3/3 89/3/3 90/3/3
f 92/3/3 89/3/3 91/3/3
f 93/3/3 89/3/3 92/3/3
f 94/3/3 90/3/3 88/3/3
f 95/2/3 91/2/3 90/2/3
f 95/3/3 90/3/3 94/3/3
f 96/3/3 92/3/3 91/3/3
f 96/2/3 91/2/3 95/2/3
f 97/2/3 93/2/3 92/2/3
f 97/3/3 92/3/3 96/3/3
f 98/2/3 93/2/3 97/2/3
f 99/3/3 89/3/3 93/3/3
f 99/2/3 93/2/3 98/2/3
f 100/3/3 89/3/3 99/3/3
f 101/1/3 95/1/3 94/1/3
f 101/2/3 96/2/3 95/2/3
f 102/1/3 97/1/3 96/1/3
f 102/2/3 96/2/3 101/2/3
f 103/2/3 98/2/3 97/2/3
f 104/1/3 100/1/3 99/1/3
f 104/2/3 98/2/3 103/2/3
f 104/1/3 99/1/3 98/1/3
f 105/2/3 103/2/3 97/2/3
f 105/1/3 104/1/3 103/1/3
f 106/1/3 100/1/3 104/1/3
f 106/1/3 104/1/3 105/1/3
f 107/1/3 97/1/3 102/1/3
f 107/2/3 105/2/3 97/2/3
f 107/2/3 106/2/3 105/2/3
f 107/1/3 102/1/3 101/1/3
f 108/1/3 100/1/3 106/1/3
f 108/2/3 106/2/3 107/2/3
f 109/1/3 107/1/3 101/1/3
f 109/1/3 101/1/3 94/1/3
f 109/1/3 108/1/3 107/1/3
f 110/1/3 100/1/3 108/1/3
f 110/1/3 108/1/3 109/1/3
f 112/1/3 100/1/3 110/1/3
f 113/1/3 100/1/3 112/1/3
f 115/1/3 112/1/3 111/1/3
f 116/1/3 112/1/3 115/1/3
f 118/1/3 115/1/3 114/1/3
f 119/1/3 115/1/3 118/1/3
f 120/3/3 118/3/3 117/3/3
f 121/3/3 118/3/3 120/3/3
f 124/1/3 123/1/3 122/1/3
f 125/1/3 123/1/3 124/1/3
f 126/3/3 125/3/3 124/3/3
f 127/3/3 125/3/3 126/3/3
f 128/1/3 127/1/3 126/1/3
f 129/1/3 127/1/3 128/1/3
f 130/1/4 131/1/4 132/1/4
f 132/1/4 131/1/4 133/1/4
f 132/3/4 133/3/4 134/3/4
f 134/3/4 133/3/4 135/3/4
f 135/3/4 133/3/4 136/3/4
f 136/3/4 133/3/4 137/3/4
f 132/3/4 134/3/4 138/3/4
f 134/2/4 135/2/4 139/2/4
f 138/3/4 134/3/4 139/3/4
f 135/3/4 136/3/4 140/3/4
f 139/2/4 135/2/4 140/2/4
f 136/2/4 137/2/4 141/2/4
f 140/3/4 136/3/4 141/3/4
f 141/2/4 137/2/4 142/2/4
f 137/3/4 133/3/4 143/3/4
f 142/2/4 137/2/4 143/2/4
f 143/3/4 133/3/4 144/3/4
f 138/1/4 139/1/4 145/1/4
f 139/2/4 140/2/4 145/2/4
f 140/1/4 141/1/4 146/1/4
f 145/2/4 140/2/4 146/2/4
f 141/2/4 142/2/4 147/2/4
f 143/1/4 144/1/4 148/1/4
f 147/2/4 142/2/4 148/2/4
f 142/1/4 143/1/4 148/1/4
f 141/2/4 147/2/4 149/2/4
f 147/1/4 148/1/4 149/1/4
f 148/1/4 144/1/4 150/1/4
f 149/1/4 148/1/4 150/1/4
f 138/1/4 145/1/4 151/1/4
f 145/1/4 146/1/4 151/1/4
f 146/1/4 141/1/4 152/1/4
f 151/1/4 146/1/4 152/1/4
f 141/2/4 149/2/4 152/2/4
f 149/2/4 150/2/4 152/2/4
f 150/1/4 144/1/4 153/1/4
f 152/2/4 150/2/4 153/2/4
f 153/1/4 144/1/4 154/1/4
f 155/3/4 156/3/4 157/3/4
f 157/3/4 156/3/4 158/3/4
f 158/1/4 159/1/4 160/1/4
f 160/1/4 159/1/4 161/1/4
f 161/1/4 162/1/4 163/1/4
f 163/1/4 162/1/4 164/1/4
f 164/1/4 165/1/4 167/1/4
f 166/1/4 167/1/4 168/1/4
f 167/1/4 165/1/4 169/1/4
f 168/1/4 167/1/4 169/1/4
f 168/3/4 169/3/4 170/3/4
f 170/3/4 169/3/4 171/3/4
f 170/1/4 171/1/4 172/1/4
f 172/1/4 171/1/4 173/1/4
f 173/1/4 171/1/4 175/1/4
f 175/1/4 171/1/4 176/1/4
f 174/1/4 175/1/4 178/1/4
f 178/1/4 175/1/4 179/1/4
f 177/1/4 178/1/4 181/1/4
f 181/1/4 178/1/4 182/1/4
f 180/3/4 181/3/4 183/3/4
f 183/3/4 181/3/4 184/3/4
f 189/1/5 186/1/5 185/1/5
f 190/3/5 187/3/5 186/3/5
f 190/1/5 186/1/5 189/1/5
f 191/1/5 188/1/5 187/1/5
f 191/3/5 187/3/5 190/3/5
f 192/1/5 188/1/5 191/1/5
f 197/3/5 194/3/5 193/3/5
f 198/3/5 194/3/5 197/3/5
f 199/3/5 196/3/5 195/3/5
f 200/3/5 196/3/5 199/3/5
f 205/1/5 202/1/5 201/1/5
f 206/1/5 202/1/5 205/1/5
f 207/1/5 204/1/5 203/1/5
f 208/1/5 204/1/5 207/1/5
f 213/1/5 210/1/5 209/1/5
f 214/1/5 210/1/5 213/1/5
f 215/1/5 212/1/5 211/1/5
f 216/1/5 212/1/5 215/1/5
f 221/1/5 218/1/5 217/1/5
f 222/1/5 218/1/5 221/1/5
f 223/1/5 220/1/5 219/1/5
f 224/1/5 220/1/5 223/1/5
f 225/1/6 226/1/6 229/1/6
f 226/3/6 227/3/6 230/3/6
f 229/1/6 226/1/6 230/1/6
f 227/1/6 228/1/6 231/1/6
f 230/3/6 227/3/6 231/3/6
f 231/1/6 228/1/6 232/1/6
f 233/3/6 234/3/6 237/3/6
f 237/3/6 234/3/6 238/3/6
f 235/3/6 236/3/6 239/3/6
f 239/3/6 236/3/6 240/3/6
f 241/1/6 242/1/6 245/1/6
f 245/1/6 242/1/6 246/1/6
f 243/1/6 244/1/6 247/1/6
f 247/1/6 244/1/6 248/1/6
f 249/1/6 250/1/6 253/1/6
f 253/1/6 250/1/6 254/1/6
f 251/1/6 252/1/6 255/1/6
f 255/1/6 252/1/6 256/1/6
f 257/1/6 258/1/6 261/1/6
f 258/3/6 259/3/6 262/3/6
f 261/1/6 258/1/6 262/1/6
f 259/1/6 260/1/6 263/1/6
f 262/3/6 259/3/6 263/3/6
f 263/1/6 260/1/6 264/1/6
f 257/1/6 261/1/6 265/1/6
f 264/1/6 260/1/6 268/1/6
f 257/1/6 265/1/6 269/1/6
f 265/1/6 266/1/6 269/1/6
f 266/3/6 267/3/6 270/3/6
f 269/1/6 266/1/6 270/1/6
f 267/1/6 268/1/6 271/1/6
f 270/3/6 267/3/6 271/3/6
f 268/1/6 260/1/6 272/1/6
f 271/1/6 268/1/6 272/1/6
