# MagicaVoxel @ Ephtracy

# group
o 

# material
mtllib Streetlight.mtl
usemtl palette

# normals
vn -1 0 0
vn 1 0 0
vn 0 0 1
vn 0 0 -1
vn 0 -1 0
vn 0 1 0

# texcoords
vt 0.779297 0.5
vt 0.986328 0.5
vt 0.990234 0.5

# verts
v -0.2 6 0.7
v -0.2 6 -0.1
v -0.2 6.1 0.7
v -0.2 6.1 -0.1
v -0.1 0 -0.5
v -0.1 0 -0.7
v -0.1 5.4 -0.5
v -0.1 5.4 -0.6
v -0.1 5.5 -0.5
v -0.1 5.5 -0.6
v -0.1 5.6 -0.5
v -0.1 5.6 -0.6
v -0.1 5.7 -0.5
v -0.1 5.7 -0.6
v -0.1 5.8 -0.3
v -0.1 5.8 -0.5
v -0.1 5.9 -0.2
v -0.1 5.9 -0.3
v -0.1 5.9 -0.5
v -0.1 5.9 -0.7
v -0.1 6 -0.1
v -0.1 6 -0.2
v -0.1 6 -0.4
v -0.1 6 -0.5
v -0.1 6.1 0.7
v -0.1 6.1 -0.1
v -0.1 6.1 -0.2
v -0.1 6.1 -0.4
v -0.1 6.2 0.7
v -0.1 6.2 0.6
v -0.1 6.2 -0.1
v -0.1 6.2 -0.2
v -0.1 6.3 0.6
v -0.1 6.3 0.5
v -0.1 6.3 0
v -0.1 6.3 -0.1
v -0.1 6.4 0.5
v -0.1 6.4 0
v 0.1 0 -0.5
v 0.1 0 -0.7
v 0.1 5.4 -0.5
v 0.1 5.4 -0.6
v 0.1 5.5 -0.5
v 0.1 5.5 -0.6
v 0.1 5.6 -0.5
v 0.1 5.6 -0.6
v 0.1 5.7 -0.5
v 0.1 5.7 -0.6
v 0.1 5.8 -0.3
v 0.1 5.8 -0.5
v 0.1 5.9 -0.2
v 0.1 5.9 -0.3
v 0.1 5.9 -0.5
v 0.1 5.9 -0.7
v 0.1 6 -0.1
v 0.1 6 -0.2
v 0.1 6 -0.4
v 0.1 6 -0.5
v 0.1 6.1 0.7
v 0.1 6.1 -0.1
v 0.1 6.1 -0.2
v 0.1 6.1 -0.4
v 0.1 6.2 0.7
v 0.1 6.2 0.6
v 0.1 6.2 -0.1
v 0.1 6.2 -0.2
v 0.1 6.3 0.6
v 0.1 6.3 0.5
v 0.1 6.3 0
v 0.1 6.3 -0.1
v 0.1 6.4 0.5
v 0.1 6.4 0
v 0.2 6 0.7
v 0.2 6 -0.1
v 0.2 6.1 0.7
v 0.2 6.1 -0.1
v -0.2 6 0.7
v -0.2 6.1 0.7
v -0.1 6.1 0.7
v -0.1 6.2 0.7
v 0.1 6.1 0.7
v 0.1 6.2 0.7
v 0.2 6 0.7
v 0.2 6.1 0.7
v -0.1 6.2 0.6
v -0.1 6.3 0.6
v 0.1 6.2 0.6
v 0.1 6.3 0.6
v -0.1 6.3 0.5
v -0.1 6.4 0.5
v 0.1 6.3 0.5
v 0.1 6.4 0.5
v -0.1 5.9 -0.2
v -0.1 6 -0.2
v 0.1 5.9 -0.2
v 0.1 6 -0.2
v -0.1 5.8 -0.3
v -0.1 5.9 -0.3
v 0.1 5.8 -0.3
v 0.1 5.9 -0.3
v -0.1 0 -0.5
v -0.1 5.4 -0.5
v -0.1 5.5 -0.5
v -0.1 5.6 -0.5
v -0.1 5.7 -0.5
v -0.1 5.8 -0.5
v 0.1 0 -0.5
v 0.1 5.4 -0.5
v 0.1 5.5 -0.5
v 0.1 5.6 -0.5
v 0.1 5.7 -0.5
v 0.1 5.8 -0.5
v -0.1 6.3 0
v -0.1 6.4 0
v 0.1 6.3 0
v 0.1 6.4 0
v -0.2 6 -0.1
v -0.2 6.1 -0.1
v -0.1 6 -0.1
v -0.1 6.1 -0.1
v -0.1 6.2 -0.1
v -0.1 6.3 -0.1
v 0.1 6 -0.1
v 0.1 6.1 -0.1
v 0.1 6.2 -0.1
v 0.1 6.3 -0.1
v 0.2 6 -0.1
v 0.2 6.1 -0.1
v -0.1 6.1 -0.2
v -0.1 6.2 -0.2
v 0.1 6.1 -0.2
v 0.1 6.2 -0.2
v -0.1 6 -0.4
v -0.1 6.1 -0.4
v 0.1 6 -0.4
v 0.1 6.1 -0.4
v -0.1 5.9 -0.5
v -0.1 6 -0.5
v 0.1 5.9 -0.5
v 0.1 6 -0.5
v -0.1 0 -0.7
v -0.1 5.9 -0.7
v 0.1 0 -0.7
v 0.1 5.9 -0.7
v -0.1 0 -0.5
v 0.1 0 -0.5
v -0.1 0 -0.7
v 0.1 0 -0.7
v -0.1 5.8 -0.3
v 0.1 5.8 -0.3
v -0.1 5.8 -0.5
v 0.1 5.8 -0.5
v -0.1 5.9 -0.2
v 0.1 5.9 -0.2
v -0.1 5.9 -0.3
v 0.1 5.9 -0.3
v -0.2 6 0.7
v 0.2 6 0.7
v -0.1 6 0.6
v 0.1 6 0.6
v -0.1 6 0
v 0.1 6 0
v -0.2 6 -0.1
v -0.1 6 -0.1
v 0.1 6 -0.1
v 0.2 6 -0.1
v -0.1 6 -0.2
v 0.1 6 -0.2
v -0.1 5.9 -0.5
v 0.1 5.9 -0.5
v -0.1 5.9 -0.7
v 0.1 5.9 -0.7
v -0.1 6 -0.4
v 0.1 6 -0.4
v -0.1 6 -0.5
v 0.1 6 -0.5
v -0.2 6.1 0.7
v -0.1 6.1 0.7
v 0.1 6.1 0.7
v 0.2 6.1 0.7
v -0.2 6.1 -0.1
v -0.1 6.1 -0.1
v 0.1 6.1 -0.1
v 0.2 6.1 -0.1
v -0.1 6.1 -0.2
v 0.1 6.1 -0.2
v -0.1 6.1 -0.4
v 0.1 6.1 -0.4
v -0.1 6.2 0.7
v 0.1 6.2 0.7
v -0.1 6.2 0.6
v 0.1 6.2 0.6
v -0.1 6.2 -0.1
v 0.1 6.2 -0.1
v -0.1 6.2 -0.2
v 0.1 6.2 -0.2
v -0.1 6.3 0.6
v 0.1 6.3 0.6
v -0.1 6.3 0.5
v 0.1 6.3 0.5
v -0.1 6.3 0
v 0.1 6.3 0
v -0.1 6.3 -0.1
v 0.1 6.3 -0.1
v -0.1 6.4 0.5
v 0.1 6.4 0.5
v -0.1 6.4 0
v 0.1 6.4 0

# faces
f 3/2/1 2/2/1 1/2/1
f 4/2/1 2/2/1 3/2/1
f 7/3/1 6/3/1 5/3/1
f 8/3/1 6/3/1 7/3/1
f 9/2/1 8/2/1 7/2/1
f 10/3/1 6/3/1 8/3/1
f 10/2/1 8/2/1 9/2/1
f 11/3/1 10/3/1 9/3/1
f 12/3/1 6/3/1 10/3/1
f 12/3/1 10/3/1 11/3/1
f 13/2/1 12/2/1 11/2/1
f 14/3/1 6/3/1 12/3/1
f 14/2/1 12/2/1 13/2/1
f 16/3/1 14/3/1 13/3/1
f 18/3/1 16/3/1 15/3/1
f 19/3/1 14/3/1 16/3/1
f 19/3/1 16/3/1 18/3/1
f 20/3/1 6/3/1 14/3/1
f 20/3/1 14/3/1 19/3/1
f 22/3/1 19/3/1 18/3/1
f 22/3/1 18/3/1 17/3/1
f 23/3/1 19/3/1 22/3/1
f 24/3/1 19/3/1 23/3/1
f 26/2/1 22/2/1 21/2/1
f 26/2/1 23/2/1 22/2/1
f 27/2/1 23/2/1 26/2/1
f 28/2/1 23/2/1 27/2/1
f 29/2/1 26/2/1 25/2/1
f 29/2/1 27/2/1 26/2/1
f 30/2/1 27/2/1 29/2/1
f 31/2/1 27/2/1 30/2/1
f 32/2/1 27/2/1 31/2/1
f 33/2/1 31/2/1 30/2/1
f 34/2/1 31/2/1 33/2/1
f 35/2/1 31/2/1 34/2/1
f 36/2/1 31/2/1 35/2/1
f 37/2/1 35/2/1 34/2/1
f 38/2/1 35/2/1 37/2/1
f 39/3/2 40/3/2 41/3/2
f 41/3/2 40/3/2 42/3/2
f 41/2/2 42/2/2 43/2/2
f 42/3/2 40/3/2 44/3/2
f 43/2/2 42/2/2 44/2/2
f 43/3/2 44/3/2 45/3/2
f 44/3/2 40/3/2 46/3/2
f 45/3/2 44/3/2 46/3/2
f 45/2/2 46/2/2 47/2/2
f 46/3/2 40/3/2 48/3/2
f 47/2/2 46/2/2 48/2/2
f 47/3/2 48/3/2 50/3/2
f 49/3/2 50/3/2 52/3/2
f 50/3/2 48/3/2 53/3/2
f 52/3/2 50/3/2 53/3/2
f 48/3/2 40/3/2 54/3/2
f 53/3/2 48/3/2 54/3/2
f 52/3/2 53/3/2 56/3/2
f 51/3/2 52/3/2 56/3/2
f 56/3/2 53/3/2 57/3/2
f 57/3/2 53/3/2 58/3/2
f 55/2/2 56/2/2 60/2/2
f 56/2/2 57/2/2 60/2/2
f 60/2/2 57/2/2 61/2/2
f 61/2/2 57/2/2 62/2/2
f 59/2/2 60/2/2 63/2/2
f 60/2/2 61/2/2 63/2/2
f 63/2/2 61/2/2 64/2/2
f 64/2/2 61/2/2 65/2/2
f 65/2/2 61/2/2 66/2/2
f 64/2/2 65/2/2 67/2/2
f 67/2/2 65/2/2 68/2/2
f 68/2/2 65/2/2 69/2/2
f 69/2/2 65/2/2 70/2/2
f 68/2/2 69/2/2 71/2/2
f 71/2/2 69/2/2 72/2/2
f 73/2/2 74/2/2 75/2/2
f 75/2/2 74/2/2 76/2/2
f 79/2/3 78/2/3 77/2/3
f 81/2/3 79/2/3 77/2/3
f 81/2/3 80/2/3 79/2/3
f 82/2/3 80/2/3 81/2/3
f 83/2/3 81/2/3 77/2/3
f 84/2/3 81/2/3 83/2/3
f 87/2/3 86/2/3 85/2/3
f 88/2/3 86/2/3 87/2/3
f 91/2/3 90/2/3 89/2/3
f 92/2/3 90/2/3 91/2/3
f 95/3/3 94/3/3 93/3/3
f 96/3/3 94/3/3 95/3/3
f 99/3/3 98/3/3 97/3/3
f 100/3/3 98/3/3 99/3/3
f 107/3/3 102/3/3 101/3/3
f 108/2/3 103/2/3 102/2/3
f 108/3/3 102/3/3 107/3/3
f 109/3/3 104/3/3 103/3/3
f 109/2/3 103/2/3 108/2/3
f 110/2/3 105/2/3 104/2/3
f 110/3/3 104/3/3 109/3/3
f 111/3/3 106/3/3 105/3/3
f 111/2/3 105/2/3 110/2/3
f 112/3/3 106/3/3 111/3/3
f 113/2/4 114/2/4 115/2/4
f 115/2/4 114/2/4 116/2/4
f 117/2/4 118/2/4 119/2/4
f 119/2/4 118/2/4 120/2/4
f 121/2/4 122/2/4 125/2/4
f 125/2/4 122/2/4 126/2/4
f 123/2/4 124/2/4 127/2/4
f 127/2/4 124/2/4 128/2/4
f 129/2/4 130/2/4 131/2/4
f 131/2/4 130/2/4 132/2/4
f 133/2/4 134/2/4 135/2/4
f 135/2/4 134/2/4 136/2/4
f 137/3/4 138/3/4 139/3/4
f 139/3/4 138/3/4 140/3/4
f 141/3/4 142/3/4 143/3/4
f 143/3/4 142/3/4 144/3/4
f 147/3/5 146/3/5 145/3/5
f 148/3/5 146/3/5 147/3/5
f 151/3/5 150/3/5 149/3/5
f 152/3/5 150/3/5 151/3/5
f 155/3/5 154/3/5 153/3/5
f 156/3/5 154/3/5 155/3/5
f 159/2/5 158/2/5 157/2/5
f 160/2/5 158/2/5 159/2/5
f 161/2/5 159/2/5 157/2/5
f 161/1/5 160/1/5 159/1/5
f 162/2/5 158/2/5 160/2/5
f 162/1/5 160/1/5 161/1/5
f 163/2/5 161/2/5 157/2/5
f 163/2/5 162/2/5 161/2/5
f 164/2/5 162/2/5 163/2/5
f 165/2/5 158/2/5 162/2/5
f 165/2/5 162/2/5 164/2/5
f 166/2/5 158/2/5 165/2/5
f 167/2/5 165/2/5 164/2/5
f 168/2/5 165/2/5 167/2/5
f 169/3/6 170/3/6 171/3/6
f 171/3/6 170/3/6 172/3/6
f 173/3/6 174/3/6 175/3/6
f 175/3/6 174/3/6 176/3/6
f 177/2/6 178/2/6 181/2/6
f 181/2/6 178/2/6 182/2/6
f 179/2/6 180/2/6 183/2/6
f 183/2/6 180/2/6 184/2/6
f 185/2/6 186/2/6 187/2/6
f 187/2/6 186/2/6 188/2/6
f 189/2/6 190/2/6 191/2/6
f 191/2/6 190/2/6 192/2/6
f 193/2/6 194/2/6 195/2/6
f 195/2/6 194/2/6 196/2/6
f 197/2/6 198/2/6 199/2/6
f 199/2/6 198/2/6 200/2/6
f 201/2/6 202/2/6 203/2/6
f 203/2/6 202/2/6 204/2/6
f 205/2/6 206/2/6 207/2/6
f 207/2/6 206/2/6 208/2/6
