# MagicaVoxel @ Ephtracy

# group
o 

# material
mtllib O_S_Extras-7.mtl
usemtl palette

# normals
vn -1 0 0
vn 1 0 0
vn 0 0 1
vn 0 0 -1
vn 0 -1 0
vn 0 1 0

# texcoords
vt 0.978516 0.5
vt 0.982422 0.5
vt 0.990234 0.5

# verts
v -3 0.1 0
v -3 0.1 -0.2
v -3 0.2 0.1
v -3 0.2 0
v -3 0.2 -0.2
v -3 0.2 -0.3
v -3 0.3 0.1
v -3 0.3 0
v -3 0.3 -0.2
v -3 0.3 -0.3
v -3 0.4 0
v -3 0.4 -0.2
v 1.6 0 0.1
v 1.6 0 -0.3
v 1.6 0.1 0.2
v 1.6 0.1 0.1
v 1.6 0.1 0
v 1.6 0.1 -0.2
v 1.6 0.1 -0.3
v 1.6 0.1 -0.4
v 1.6 0.2 0.1
v 1.6 0.2 0
v 1.6 0.2 -0.2
v 1.6 0.2 -0.3
v 1.6 0.3 0.1
v 1.6 0.3 0
v 1.6 0.3 -0.2
v 1.6 0.3 -0.3
v 1.6 0.4 0.2
v 1.6 0.4 0.1
v 1.6 0.4 0
v 1.6 0.4 -0.2
v 1.6 0.4 -0.3
v 1.6 0.4 -0.4
v 1.6 0.5 0.1
v 1.6 0.5 -0.3
v 1.8 0.1 0
v 1.8 0.1 -0.2
v 1.8 0.2 0.1
v 1.8 0.2 0
v 1.8 0.2 -0.2
v 1.8 0.2 -0.3
v 1.8 0.3 0.1
v 1.8 0.3 0
v 1.8 0.3 -0.2
v 1.8 0.3 -0.3
v 1.8 0.4 0
v 1.8 0.4 -0.2
v 2.3 0.3 0.1
v 2.3 0.3 0
v 2.3 0.3 -0.2
v 2.3 0.3 -0.3
v 2.3 0.4 0.1
v 2.3 0.4 0
v 2.3 0.4 -0.2
v 2.3 0.4 -0.3
v 2.5 0.4 0.1
v 2.5 0.4 -0.3
v 2.5 0.5 0.1
v 2.5 0.5 -0.3
v 2.7 0.5 0.1
v 2.7 0.5 -0.3
v 2.7 0.9 0.1
v 2.7 0.9 -0.3
v 2.9 0.2 0
v 2.9 0.2 -0.2
v 2.9 0.3 0
v 2.9 0.3 -0.2
v 3 0.3 0
v 3 0.3 -0.2
v 3 0.7 0
v 3 0.7 -0.2
v 3 0.8 0
v 3 0.8 -0.2
v 3 0.9 0
v 3 0.9 -0.2
v -2.9 0.2 0
v -2.9 0.2 -0.2
v -2.9 0.3 0
v -2.9 0.3 -0.2
v 1.6 0.1 0
v 1.6 0.1 -0.2
v 1.6 0.2 0.1
v 1.6 0.2 0
v 1.6 0.2 -0.2
v 1.6 0.2 -0.3
v 1.6 0.3 0.1
v 1.6 0.3 0
v 1.6 0.3 -0.2
v 1.6 0.3 -0.3
v 1.6 0.4 0
v 1.6 0.4 -0.2
v 1.8 0 0.1
v 1.8 0 -0.3
v 1.8 0.1 0.2
v 1.8 0.1 0.1
v 1.8 0.1 0
v 1.8 0.1 -0.2
v 1.8 0.1 -0.3
v 1.8 0.1 -0.4
v 1.8 0.2 0.1
v 1.8 0.2 0
v 1.8 0.2 -0.2
v 1.8 0.2 -0.3
v 1.8 0.3 0.1
v 1.8 0.3 0
v 1.8 0.3 -0.2
v 1.8 0.3 -0.3
v 1.8 0.4 0.2
v 1.8 0.4 0.1
v 1.8 0.4 0
v 1.8 0.4 -0.2
v 1.8 0.4 -0.3
v 1.8 0.4 -0.4
v 1.8 0.5 0.1
v 1.8 0.5 -0.3
v 2.5 0.3 0
v 2.5 0.3 -0.2
v 2.5 0.4 0
v 2.5 0.4 -0.2
v 2.7 0.4 0
v 2.7 0.4 -0.2
v 2.7 0.5 0
v 2.7 0.5 -0.2
v 2.8 0.5 0
v 2.8 0.5 -0.2
v 2.8 0.7 0
v 2.8 0.7 -0.2
v 2.8 0.8 0
v 2.8 0.8 -0.2
v 2.8 0.9 0
v 2.8 0.9 -0.2
v 2.9 0.1 0
v 2.9 0.1 -0.2
v 2.9 0.2 0
v 2.9 0.2 -0.2
v 3 0.2 0.1
v 3 0.2 -0.3
v 3 0.3 0.1
v 3 0.3 -0.3
v 3.1 0.3 0.1
v 3.1 0.3 -0.3
v 3.1 0.9 0.1
v 3.1 0.9 -0.3
v 1.6 0.1 0.2
v 1.6 0.4 0.2
v 1.8 0.1 0.2
v 1.8 0.4 0.2
v -3 0.2 0.1
v -3 0.3 0.1
v 1.6 0 0.1
v 1.6 0.1 0.1
v 1.6 0.2 0.1
v 1.6 0.3 0.1
v 1.6 0.4 0.1
v 1.6 0.5 0.1
v 1.8 0 0.1
v 1.8 0.1 0.1
v 1.8 0.2 0.1
v 1.8 0.3 0.1
v 1.8 0.4 0.1
v 1.8 0.5 0.1
v 2.3 0.3 0.1
v 2.3 0.4 0.1
v 2.5 0.4 0.1
v 2.5 0.5 0.1
v 2.7 0.5 0.1
v 2.7 0.9 0.1
v 3 0.2 0.1
v 3 0.3 0.1
v 3.1 0.3 0.1
v 3.1 0.9 0.1
v -3 0.1 0
v -3 0.2 0
v -3 0.3 0
v -3 0.4 0
v 1.6 0.1 0
v 1.6 0.2 0
v 1.6 0.3 0
v 1.6 0.4 0
v 1.8 0.1 0
v 1.8 0.2 0
v 1.8 0.3 0
v 1.8 0.4 0
v 2.3 0.3 0
v 2.3 0.4 0
v 2.9 0.1 0
v 2.9 0.2 0
v -2.9 0.2 -0.2
v -2.9 0.3 -0.2
v 1.6 0.1 -0.2
v 1.6 0.2 -0.2
v 1.6 0.3 -0.2
v 1.6 0.4 -0.2
v 1.8 0.1 -0.2
v 1.8 0.2 -0.2
v 1.8 0.3 -0.2
v 1.8 0.4 -0.2
v 2.5 0.3 -0.2
v 2.5 0.4 -0.2
v 2.7 0.4 -0.2
v 2.7 0.5 -0.2
v 2.8 0.5 -0.2
v 2.8 0.7 -0.2
v 2.8 0.8 -0.2
v 2.8 0.9 -0.2
v 2.9 0.2 -0.2
v 2.9 0.3 -0.2
v 3 0.3 -0.2
v 3 0.7 -0.2
v 3 0.8 -0.2
v 3 0.9 -0.2
v 1.6 0.2 -0.3
v 1.6 0.3 -0.3
v 1.8 0.2 -0.3
v 1.8 0.3 -0.3
v 1.6 0.2 0.1
v 1.6 0.3 0.1
v 1.8 0.2 0.1
v 1.8 0.3 0.1
v -2.9 0.2 0
v -2.9 0.3 0
v 1.6 0.1 0
v 1.6 0.2 0
v 1.6 0.3 0
v 1.6 0.4 0
v 1.8 0.1 0
v 1.8 0.2 0
v 1.8 0.3 0
v 1.8 0.4 0
v 2.5 0.3 0
v 2.5 0.4 0
v 2.7 0.4 0
v 2.7 0.5 0
v 2.8 0.5 0
v 2.8 0.7 0
v 2.8 0.8 0
v 2.8 0.9 0
v 2.9 0.2 0
v 2.9 0.3 0
v 3 0.3 0
v 3 0.7 0
v 3 0.8 0
v 3 0.9 0
v -3 0.1 -0.2
v -3 0.2 -0.2
v -3 0.3 -0.2
v -3 0.4 -0.2
v 1.6 0.1 -0.2
v 1.6 0.2 -0.2
v 1.6 0.3 -0.2
v 1.6 0.4 -0.2
v 1.8 0.1 -0.2
v 1.8 0.2 -0.2
v 1.8 0.3 -0.2
v 1.8 0.4 -0.2
v 2.3 0.3 -0.2
v 2.3 0.4 -0.2
v 2.9 0.1 -0.2
v 2.9 0.2 -0.2
v -3 0.2 -0.3
v -3 0.3 -0.3
v 1.6 0 -0.3
v 1.6 0.1 -0.3
v 1.6 0.2 -0.3
v 1.6 0.3 -0.3
v 1.6 0.4 -0.3
v 1.6 0.5 -0.3
v 1.8 0 -0.3
v 1.8 0.1 -0.3
v 1.8 0.2 -0.3
v 1.8 0.3 -0.3
v 1.8 0.4 -0.3
v 1.8 0.5 -0.3
v 2.3 0.3 -0.3
v 2.3 0.4 -0.3
v 2.5 0.4 -0.3
v 2.5 0.5 -0.3
v 2.7 0.5 -0.3
v 2.7 0.9 -0.3
v 3 0.2 -0.3
v 3 0.3 -0.3
v 3.1 0.3 -0.3
v 3.1 0.9 -0.3
v 1.6 0.1 -0.4
v 1.6 0.4 -0.4
v 1.8 0.1 -0.4
v 1.8 0.4 -0.4
v 1.6 0 0.1
v 1.8 0 0.1
v 1.6 0 -0.3
v 1.8 0 -0.3
v 1.6 0.1 0.2
v 1.8 0.1 0.2
v 1.6 0.1 0.1
v 1.8 0.1 0.1
v -3 0.1 0
v 1.6 0.1 0
v 1.8 0.1 0
v 2.9 0.1 0
v -3 0.1 -0.2
v 1.6 0.1 -0.2
v 1.8 0.1 -0.2
v 2.9 0.1 -0.2
v 1.6 0.1 -0.3
v 1.8 0.1 -0.3
v 1.6 0.1 -0.4
v 1.8 0.1 -0.4
v -3 0.2 0.1
v 1.6 0.2 0.1
v 1.8 0.2 0.1
v 3 0.2 0.1
v -3 0.2 0
v 1.6 0.2 0
v 1.8 0.2 0
v 2.9 0.2 0
v -3 0.2 -0.2
v 1.6 0.2 -0.2
v 1.8 0.2 -0.2
v 2.9 0.2 -0.2
v -3 0.2 -0.3
v 1.6 0.2 -0.3
v 1.8 0.2 -0.3
v 3 0.2 -0.3
v 1.6 0.3 0.1
v 1.8 0.3 0.1
v 3 0.3 0.1
v 3.1 0.3 0.1
v -2.9 0.3 0
v 1.6 0.3 0
v 1.8 0.3 0
v 2.5 0.3 0
v -2.9 0.3 -0.2
v 1.6 0.3 -0.2
v 1.8 0.3 -0.2
v 2.5 0.3 -0.2
v 1.6 0.3 -0.3
v 1.8 0.3 -0.3
v 3 0.3 -0.3
v 3.1 0.3 -0.3
v 1.6 0.4 0
v 1.8 0.4 0
v 2.5 0.4 0
v 2.7 0.4 0
v 1.6 0.4 -0.2
v 1.8 0.4 -0.2
v 2.5 0.4 -0.2
v 2.7 0.4 -0.2
v 2.7 0.5 0
v 2.8 0.5 0
v 2.7 0.5 -0.2
v 2.8 0.5 -0.2
v 2.8 0.7 0
v 3 0.7 0
v 2.8 0.7 -0.2
v 3 0.7 -0.2
v 1.6 0.1 0
v 1.8 0.1 0
v 1.6 0.1 -0.2
v 1.8 0.1 -0.2
v 1.6 0.2 0.1
v 1.8 0.2 0.1
v -2.9 0.2 0
v 1.6 0.2 0
v 1.8 0.2 0
v 2.9 0.2 0
v -2.9 0.2 -0.2
v 1.6 0.2 -0.2
v 1.8 0.2 -0.2
v 2.9 0.2 -0.2
v 1.6 0.2 -0.3
v 1.8 0.2 -0.3
v -3 0.3 0.1
v 1.6 0.3 0.1
v 1.8 0.3 0.1
v 2.3 0.3 0.1
v -3 0.3 0
v 1.6 0.3 0
v 1.8 0.3 0
v 2.3 0.3 0
v 2.9 0.3 0
v 3 0.3 0
v -3 0.3 -0.2
v 1.6 0.3 -0.2
v 1.8 0.3 -0.2
v 2.3 0.3 -0.2
v 2.9 0.3 -0.2
v 3 0.3 -0.2
v -3 0.3 -0.3
v 1.6 0.3 -0.3
v 1.8 0.3 -0.3
v 2.3 0.3 -0.3
v 1.6 0.4 0.2
v 1.8 0.4 0.2
v 1.6 0.4 0.1
v 1.8 0.4 0.1
v 2.3 0.4 0.1
v 2.5 0.4 0.1
v -3 0.4 0
v 1.6 0.4 0
v 1.8 0.4 0
v 2.3 0.4 0
v -3 0.4 -0.2
v 1.6 0.4 -0.2
v 1.8 0.4 -0.2
v 2.3 0.4 -0.2
v 1.6 0.4 -0.3
v 1.8 0.4 -0.3
v 2.3 0.4 -0.3
v 2.5 0.4 -0.3
v 1.6 0.4 -0.4
v 1.8 0.4 -0.4
v 1.6 0.5 0.1
v 1.8 0.5 0.1
v 2.5 0.5 0.1
v 2.7 0.5 0.1
v 1.6 0.5 -0.3
v 1.8 0.5 -0.3
v 2.5 0.5 -0.3
v 2.7 0.5 -0.3
v 2.8 0.8 0
v 3 0.8 0
v 2.8 0.8 -0.2
v 3 0.8 -0.2
v 2.7 0.9 0.1
v 3.1 0.9 0.1
v 2.8 0.9 0
v 3 0.9 0
v 2.8 0.9 -0.2
v 3 0.9 -0.2
v 2.7 0.9 -0.3
v 3.1 0.9 -0.3

# faces
f 4/2/1 2/2/1 1/2/1
f 5/2/1 2/2/1 4/2/1
f 7/2/1 4/2/1 3/2/1
f 7/2/1 6/2/1 5/2/1
f 7/2/1 5/2/1 4/2/1
f 8/2/1 6/2/1 7/2/1
f 9/2/1 6/2/1 8/2/1
f 10/2/1 6/2/1 9/2/1
f 11/2/1 9/2/1 8/2/1
f 12/2/1 9/2/1 11/2/1
f 16/1/1 14/1/1 13/1/1
f 17/1/1 14/1/1 16/1/1
f 18/1/1 14/1/1 17/1/1
f 19/1/1 14/1/1 18/1/1
f 21/1/1 16/1/1 15/1/1
f 21/1/1 17/1/1 16/1/1
f 22/1/1 17/1/1 21/1/1
f 23/1/1 20/1/1 19/1/1
f 23/1/1 19/1/1 18/1/1
f 24/1/1 20/1/1 23/1/1
f 25/1/1 21/1/1 15/1/1
f 28/1/1 20/1/1 24/1/1
f 29/1/1 26/1/1 25/1/1
f 29/1/1 25/1/1 15/1/1
f 30/1/1 26/1/1 29/1/1
f 31/1/1 26/1/1 30/1/1
f 32/1/1 28/1/1 27/1/1
f 33/1/1 20/1/1 28/1/1
f 33/1/1 28/1/1 32/1/1
f 34/1/1 20/1/1 33/1/1
f 35/1/1 31/1/1 30/1/1
f 35/1/1 32/1/1 31/1/1
f 35/1/1 33/1/1 32/1/1
f 36/1/1 33/1/1 35/1/1
f 40/2/1 38/2/1 37/2/1
f 41/2/1 38/2/1 40/2/1
f 43/2/1 40/2/1 39/2/1
f 44/2/1 40/2/1 43/2/1
f 45/2/1 42/2/1 41/2/1
f 46/2/1 42/2/1 45/2/1
f 47/2/1 45/2/1 44/2/1
f 48/2/1 45/2/1 47/2/1
f 53/2/1 50/2/1 49/2/1
f 54/2/1 50/2/1 53/2/1
f 55/2/1 52/2/1 51/2/1
f 56/2/1 52/2/1 55/2/1
f 59/2/1 58/2/1 57/2/1
f 60/2/1 58/2/1 59/2/1
f 63/2/1 62/2/1 61/2/1
f 64/2/1 62/2/1 63/2/1
f 67/2/1 66/2/1 65/2/1
f 68/2/1 66/2/1 67/2/1
f 71/2/1 70/2/1 69/2/1
f 72/2/1 70/2/1 71/2/1
f 75/2/1 74/2/1 73/2/1
f 76/2/1 74/2/1 75/2/1
f 77/2/2 78/2/2 79/2/2
f 79/2/2 78/2/2 80/2/2
f 81/2/2 82/2/2 84/2/2
f 84/2/2 82/2/2 85/2/2
f 83/2/2 84/2/2 87/2/2
f 87/2/2 84/2/2 88/2/2
f 85/2/2 86/2/2 89/2/2
f 89/2/2 86/2/2 90/2/2
f 88/2/2 89/2/2 91/2/2
f 91/2/2 89/2/2 92/2/2
f 93/1/2 94/1/2 96/1/2
f 96/1/2 94/1/2 97/1/2
f 97/1/2 94/1/2 98/1/2
f 98/1/2 94/1/2 99/1/2
f 95/1/2 96/1/2 101/1/2
f 96/1/2 97/1/2 101/1/2
f 101/1/2 97/1/2 102/1/2
f 99/1/2 100/1/2 103/1/2
f 98/1/2 99/1/2 103/1/2
f 103/1/2 100/1/2 104/1/2
f 95/1/2 101/1/2 105/1/2
f 104/1/2 100/1/2 108/1/2
f 105/1/2 106/1/2 109/1/2
f 95/1/2 105/1/2 109/1/2
f 109/1/2 106/1/2 110/1/2
f 110/1/2 106/1/2 111/1/2
f 107/1/2 108/1/2 112/1/2
f 108/1/2 100/1/2 113/1/2
f 112/1/2 108/1/2 113/1/2
f 113/1/2 100/1/2 114/1/2
f 110/1/2 111/1/2 115/1/2
f 111/1/2 112/1/2 115/1/2
f 112/1/2 113/1/2 115/1/2
f 115/1/2 113/1/2 116/1/2
f 117/2/2 118/2/2 119/2/2
f 119/2/2 118/2/2 120/2/2
f 121/2/2 122/2/2 123/2/2
f 123/2/2 122/2/2 124/2/2
f 125/2/2 126/2/2 127/2/2
f 127/2/2 126/2/2 128/2/2
f 129/2/2 130/2/2 131/2/2
f 131/2/2 130/2/2 132/2/2
f 133/2/2 134/2/2 135/2/2
f 135/2/2 134/2/2 136/2/2
f 137/2/2 138/2/2 139/2/2
f 139/2/2 138/2/2 140/2/2
f 141/2/2 142/2/2 143/2/2
f 143/2/2 142/2/2 144/2/2
f 147/1/3 146/1/3 145/1/3
f 148/1/3 146/1/3 147/1/3
f 153/2/3 150/2/3 149/2/3
f 154/2/3 150/2/3 153/2/3
f 157/1/3 152/1/3 151/1/3
f 158/1/3 152/1/3 157/1/3
f 161/1/3 156/1/3 155/1/3
f 162/1/3 156/1/3 161/1/3
f 163/2/3 160/2/3 159/2/3
f 165/2/3 164/2/3 163/2/3
f 167/2/3 166/2/3 165/2/3
f 169/2/3 167/2/3 165/2/3
f 169/2/3 168/2/3 167/2/3
f 169/2/3 165/2/3 163/2/3
f 169/2/3 163/2/3 159/2/3
f 170/2/3 168/2/3 169/2/3
f 171/2/3 168/2/3 170/2/3
f 172/2/3 168/2/3 171/2/3
f 177/2/3 174/2/3 173/2/3
f 178/2/3 174/2/3 177/2/3
f 179/2/3 176/2/3 175/2/3
f 180/2/3 176/2/3 179/2/3
f 185/2/3 184/2/3 183/2/3
f 186/2/3 184/2/3 185/2/3
f 187/2/3 182/2/3 181/2/3
f 188/2/3 182/2/3 187/2/3
f 192/2/3 190/2/3 189/2/3
f 193/2/3 190/2/3 192/2/3
f 195/1/3 192/1/3 191/1/3
f 196/1/3 192/1/3 195/1/3
f 197/1/3 194/1/3 193/1/3
f 198/1/3 194/1/3 197/1/3
f 199/2/3 197/2/3 196/2/3
f 201/2/3 200/2/3 199/2/3
f 203/2/3 202/2/3 201/2/3
f 207/2/3 201/2/3 199/2/3
f 207/2/3 199/2/3 196/2/3
f 207/2/3 204/2/3 203/2/3
f 207/2/3 203/2/3 201/2/3
f 208/2/3 204/2/3 207/2/3
f 209/2/3 204/2/3 208/2/3
f 210/2/3 204/2/3 209/2/3
f 211/2/3 206/2/3 205/2/3
f 212/2/3 206/2/3 211/2/3
f 215/1/3 214/1/3 213/1/3
f 216/1/3 214/1/3 215/1/3
f 217/1/4 218/1/4 219/1/4
f 219/1/4 218/1/4 220/1/4
f 221/2/4 222/2/4 224/2/4
f 224/2/4 222/2/4 225/2/4
f 223/1/4 224/1/4 227/1/4
f 227/1/4 224/1/4 228/1/4
f 225/1/4 226/1/4 229/1/4
f 229/1/4 226/1/4 230/1/4
f 228/2/4 229/2/4 231/2/4
f 231/2/4 232/2/4 233/2/4
f 233/2/4 234/2/4 235/2/4
f 231/2/4 233/2/4 239/2/4
f 228/2/4 231/2/4 239/2/4
f 235/2/4 236/2/4 239/2/4
f 233/2/4 235/2/4 239/2/4
f 239/2/4 236/2/4 240/2/4
f 240/2/4 236/2/4 241/2/4
f 241/2/4 236/2/4 242/2/4
f 237/2/4 238/2/4 243/2/4
f 243/2/4 238/2/4 244/2/4
f 245/2/4 246/2/4 249/2/4
f 249/2/4 246/2/4 250/2/4
f 247/2/4 248/2/4 251/2/4
f 251/2/4 248/2/4 252/2/4
f 255/2/4 256/2/4 257/2/4
f 257/2/4 256/2/4 258/2/4
f 253/2/4 254/2/4 259/2/4
f 259/2/4 254/2/4 260/2/4
f 261/2/4 262/2/4 265/2/4
f 265/2/4 262/2/4 266/2/4
f 263/1/4 264/1/4 269/1/4
f 269/1/4 264/1/4 270/1/4
f 267/1/4 268/1/4 273/1/4
f 273/1/4 268/1/4 274/1/4
f 271/2/4 272/2/4 275/2/4
f 275/2/4 276/2/4 277/2/4
f 277/2/4 278/2/4 279/2/4
f 277/2/4 279/2/4 281/2/4
f 279/2/4 280/2/4 281/2/4
f 275/2/4 277/2/4 281/2/4
f 271/2/4 275/2/4 281/2/4
f 281/2/4 280/2/4 282/2/4
f 282/2/4 280/2/4 283/2/4
f 283/2/4 280/2/4 284/2/4
f 285/1/4 286/1/4 287/1/4
f 287/1/4 286/1/4 288/1/4
f 291/1/5 290/1/5 289/1/5
f 292/1/5 290/1/5 291/1/5
f 295/1/5 294/1/5 293/1/5
f 296/1/5 294/1/5 295/1/5
f 301/2/5 298/2/5 297/2/5
f 302/2/5 298/2/5 301/2/5
f 303/2/5 300/2/5 299/2/5
f 304/2/5 300/2/5 303/2/5
f 307/1/5 306/1/5 305/1/5
f 308/1/5 306/1/5 307/1/5
f 313/2/5 310/2/5 309/2/5
f 314/2/5 310/2/5 313/2/5
f 315/2/5 312/2/5 311/2/5
f 316/2/5 312/2/5 315/2/5
f 320/2/5 312/2/5 316/2/5
f 321/2/5 318/2/5 317/2/5
f 322/2/5 318/2/5 321/2/5
f 323/2/5 320/2/5 319/2/5
f 324/2/5 312/2/5 320/2/5
f 324/2/5 320/2/5 323/2/5
f 330/1/5 326/1/5 325/1/5
f 331/1/5 326/1/5 330/1/5
f 333/2/5 330/2/5 329/2/5
f 334/2/5 330/2/5 333/2/5
f 335/2/5 332/2/5 331/2/5
f 336/2/5 332/2/5 335/2/5
f 337/1/5 335/1/5 334/1/5
f 338/1/5 335/1/5 337/1/5
f 339/2/5 328/2/5 327/2/5
f 340/2/5 328/2/5 339/2/5
f 345/1/5 342/1/5 341/1/5
f 346/1/5 342/1/5 345/1/5
f 347/2/5 344/2/5 343/2/5
f 348/2/5 344/2/5 347/2/5
f 351/2/5 350/2/5 349/2/5
f 352/2/5 350/2/5 351/2/5
f 355/3/5 354/3/5 353/3/5
f 356/3/5 354/3/5 355/3/5
f 357/1/6 358/1/6 359/1/6
f 359/1/6 358/1/6 360/1/6
f 361/1/6 362/1/6 364/1/6
f 364/1/6 362/1/6 365/1/6
f 363/2/6 364/2/6 367/2/6
f 367/2/6 364/2/6 368/2/6
f 365/2/6 366/2/6 369/2/6
f 369/2/6 366/2/6 370/2/6
f 368/1/6 369/1/6 371/1/6
f 371/1/6 369/1/6 372/1/6
f 373/2/6 374/2/6 377/2/6
f 377/2/6 374/2/6 378/2/6
f 375/2/6 376/2/6 379/2/6
f 379/2/6 376/2/6 380/2/6
f 381/2/6 382/2/6 387/2/6
f 387/2/6 382/2/6 388/2/6
f 383/2/6 384/2/6 389/2/6
f 389/2/6 384/2/6 390/2/6
f 385/2/6 386/2/6 391/2/6
f 391/2/6 386/2/6 392/2/6
f 393/1/6 394/1/6 395/1/6
f 395/1/6 394/1/6 396/1/6
f 397/2/6 398/2/6 402/2/6
f 399/2/6 400/2/6 403/2/6
f 403/2/6 400/2/6 404/2/6
f 401/2/6 402/2/6 405/2/6
f 402/2/6 398/2/6 406/2/6
f 405/2/6 402/2/6 406/2/6
f 406/2/6 398/2/6 409/2/6
f 409/2/6 398/2/6 410/2/6
f 407/1/6 408/1/6 411/1/6
f 411/1/6 408/1/6 412/1/6
f 413/1/6 414/1/6 417/1/6
f 417/1/6 414/1/6 418/1/6
f 415/2/6 416/2/6 419/2/6
f 419/2/6 416/2/6 420/2/6
f 421/3/6 422/3/6 423/3/6
f 423/3/6 422/3/6 424/3/6
f 425/2/6 426/2/6 427/2/6
f 427/2/6 426/2/6 428/2/6
f 425/2/6 427/2/6 429/2/6
f 428/2/6 426/2/6 430/2/6
f 425/2/6 429/2/6 431/2/6
f 429/2/6 430/2/6 431/2/6
f 430/2/6 426/2/6 432/2/6
f 431/2/6 430/2/6 432/2/6
